<svg width="233" height="64" viewBox="0 0 233 64" fill="none" xmlns="http://www.w3.org/2000/svg">
<path d="M26.9318 19H23.4091C23.2008 17.9867 22.8362 17.0966 22.3153 16.3295C21.804 15.5625 21.179 14.9186 20.4403 14.3977C19.7112 13.8674 18.9015 13.4697 18.0114 13.2045C17.1212 12.9394 16.1932 12.8068 15.2273 12.8068C13.4659 12.8068 11.8703 13.2519 10.4403 14.142C9.01989 15.0322 7.88826 16.3438 7.04545 18.0767C6.21212 19.8097 5.79545 21.9356 5.79545 24.4545C5.79545 26.9735 6.21212 29.0994 7.04545 30.8324C7.88826 32.5653 9.01989 33.8769 10.4403 34.767C11.8703 35.6572 13.4659 36.1023 15.2273 36.1023C16.1932 36.1023 17.1212 35.9697 18.0114 35.7045C18.9015 35.4394 19.7112 35.0464 20.4403 34.5256C21.179 33.9953 21.804 33.3466 22.3153 32.5795C22.8362 31.803 23.2008 30.9129 23.4091 29.9091H26.9318C26.6667 31.3958 26.1837 32.7263 25.483 33.9006C24.7822 35.0748 23.911 36.0739 22.8693 36.8977C21.8277 37.7121 20.6581 38.3324 19.3608 38.7585C18.0729 39.1847 16.6951 39.3977 15.2273 39.3977C12.7462 39.3977 10.5398 38.7917 8.60795 37.5795C6.67614 36.3674 5.15625 34.6439 4.0483 32.4091C2.94034 30.1742 2.38636 27.5227 2.38636 24.4545C2.38636 21.3864 2.94034 18.7348 4.0483 16.5C5.15625 14.2652 6.67614 12.5417 8.60795 11.3295C10.5398 10.1174 12.7462 9.51136 15.2273 9.51136C16.6951 9.51136 18.0729 9.72443 19.3608 10.1506C20.6581 10.5767 21.8277 11.2017 22.8693 12.0256C23.911 12.84 24.7822 13.8343 25.483 15.0085C26.1837 16.1733 26.6667 17.5038 26.9318 19ZM32.1697 39V17.1818H35.522V39H32.1697ZM33.8743 13.5455C33.2209 13.5455 32.6574 13.3229 32.1839 12.8778C31.7199 12.4328 31.4879 11.8977 31.4879 11.2727C31.4879 10.6477 31.7199 10.1127 32.1839 9.66761C32.6574 9.22254 33.2209 9 33.8743 9C34.5277 9 35.0864 9.22254 35.5504 9.66761C36.0239 10.1127 36.2607 10.6477 36.2607 11.2727C36.2607 11.8977 36.0239 12.4328 35.5504 12.8778C35.0864 13.3229 34.5277 13.5455 33.8743 13.5455ZM45.0142 25.875V39H41.6619V17.1818H44.9006V20.5909H45.1847C45.696 19.483 46.4725 18.5928 47.5142 17.9205C48.5559 17.2386 49.9006 16.8977 51.5483 16.8977C53.0256 16.8977 54.3182 17.2008 55.4261 17.8068C56.5341 18.4034 57.3958 19.3125 58.0114 20.5341C58.6269 21.7462 58.9347 23.2803 58.9347 25.1364V39H55.5824V25.3636C55.5824 23.6496 55.1373 22.3144 54.2472 21.358C53.357 20.392 52.1354 19.9091 50.5824 19.9091C49.5123 19.9091 48.5559 20.1411 47.7131 20.6051C46.8797 21.0691 46.2216 21.7462 45.7386 22.6364C45.2557 23.5265 45.0142 24.6061 45.0142 25.875ZM74.2081 39.4545C72.1058 39.4545 70.2924 38.9905 68.7678 38.0625C67.2526 37.125 66.0831 35.8182 65.2592 34.142C64.4448 32.4564 64.0376 30.4962 64.0376 28.2614C64.0376 26.0265 64.4448 24.0568 65.2592 22.3523C66.0831 20.6383 67.2289 19.303 68.6967 18.3466C70.174 17.3807 71.8975 16.8977 73.8672 16.8977C75.0036 16.8977 76.1257 17.0871 77.2337 17.4659C78.3416 17.8447 79.3501 18.4602 80.2592 19.3125C81.1683 20.1553 81.8928 21.2727 82.4325 22.6648C82.9723 24.0568 83.2422 25.7708 83.2422 27.8068V29.2273H66.424V26.3295H79.8331C79.8331 25.0985 79.5869 24 79.0945 23.0341C78.6115 22.0682 77.9202 21.3059 77.0206 20.7472C76.1304 20.1884 75.0793 19.9091 73.8672 19.9091C72.532 19.9091 71.3767 20.2405 70.4013 20.9034C69.4354 21.5568 68.692 22.4091 68.1712 23.4602C67.6503 24.5114 67.3899 25.6383 67.3899 26.8409V28.7727C67.3899 30.4205 67.674 31.8172 68.2422 32.9631C68.8198 34.0994 69.62 34.9659 70.6428 35.5625C71.6655 36.1496 72.8539 36.4432 74.2081 36.4432C75.0888 36.4432 75.8842 36.3201 76.5945 36.0739C77.3142 35.8182 77.9344 35.4394 78.4553 34.9375C78.9761 34.4261 79.3786 33.7917 79.6626 33.0341L82.9013 33.9432C82.5604 35.0417 81.9875 36.0076 81.1825 36.8409C80.3776 37.6648 79.3833 38.3087 78.1996 38.7727C77.0159 39.2273 75.6854 39.4545 74.2081 39.4545ZM88.3416 39V17.1818H91.5803V20.5909H91.8643C92.3189 19.4261 93.0528 18.5218 94.0661 17.8778C95.0793 17.2244 96.2962 16.8977 97.7166 16.8977C99.156 16.8977 100.354 17.2244 101.31 17.8778C102.276 18.5218 103.029 19.4261 103.569 20.5909H103.796C104.355 19.464 105.193 18.5691 106.31 17.9062C107.428 17.2339 108.768 16.8977 110.33 16.8977C112.281 16.8977 113.877 17.5085 115.117 18.7301C116.358 19.9422 116.978 21.8314 116.978 24.3977V39H113.626V24.3977C113.626 22.7879 113.185 21.6373 112.305 20.946C111.424 20.2547 110.387 19.9091 109.194 19.9091C107.66 19.9091 106.471 20.3731 105.629 21.3011C104.786 22.2197 104.364 23.3845 104.364 24.7955V39H100.955V24.0568C100.955 22.8163 100.553 21.8172 99.7479 21.0597C98.9429 20.2926 97.906 19.9091 96.6371 19.9091C95.7659 19.9091 94.9515 20.1411 94.1939 20.6051C93.4458 21.0691 92.8397 21.7131 92.3757 22.5369C91.9212 23.3513 91.6939 24.2936 91.6939 25.3636V39H88.3416ZM129.528 39.5114C128.145 39.5114 126.89 39.2509 125.763 38.7301C124.637 38.1998 123.742 37.4375 123.079 36.4432C122.416 35.4394 122.085 34.2273 122.085 32.8068C122.085 31.5568 122.331 30.5436 122.823 29.767C123.316 28.9811 123.974 28.3655 124.798 27.9205C125.621 27.4754 126.531 27.1439 127.525 26.9261C128.529 26.6989 129.537 26.5189 130.55 26.3864C131.876 26.2159 132.951 26.0881 133.775 26.0028C134.608 25.9081 135.214 25.7519 135.593 25.5341C135.981 25.3163 136.175 24.9375 136.175 24.3977V24.2841C136.175 22.8826 135.792 21.7936 135.025 21.017C134.267 20.2405 133.117 19.8523 131.573 19.8523C129.973 19.8523 128.718 20.2027 127.809 20.9034C126.9 21.6042 126.261 22.3523 125.891 23.1477L122.71 22.0114C123.278 20.6856 124.035 19.6534 124.982 18.9148C125.939 18.1667 126.98 17.6458 128.107 17.3523C129.244 17.0492 130.361 16.8977 131.46 16.8977C132.16 16.8977 132.965 16.983 133.874 17.1534C134.793 17.3144 135.678 17.6506 136.531 18.1619C137.392 18.6733 138.107 19.4451 138.675 20.4773C139.244 21.5095 139.528 22.892 139.528 24.625V39H136.175V36.0455H136.005C135.778 36.5189 135.399 37.0256 134.869 37.5653C134.338 38.1051 133.633 38.5644 132.752 38.9432C131.871 39.322 130.797 39.5114 129.528 39.5114ZM130.039 36.5C131.365 36.5 132.482 36.2396 133.391 35.7188C134.31 35.1979 135.001 34.5256 135.465 33.7017C135.939 32.8778 136.175 32.0114 136.175 31.1023V28.0341C136.033 28.2045 135.721 28.3608 135.238 28.5028C134.764 28.6354 134.215 28.7538 133.59 28.858C132.975 28.9527 132.373 29.0379 131.786 29.1136C131.209 29.1799 130.74 29.2367 130.38 29.2841C129.509 29.3977 128.694 29.5824 127.937 29.8381C127.189 30.0843 126.583 30.4583 126.119 30.9602C125.664 31.4527 125.437 32.125 125.437 32.9773C125.437 34.142 125.868 35.0227 126.729 35.6193C127.601 36.2064 128.704 36.5 130.039 36.5ZM146.101 39V9.90909H163.544V13.0341H149.624V22.8636H162.237V25.9886H149.624V39H146.101ZM172.475 9.90909V39H169.123V9.90909H172.475ZM178.615 39V17.1818H181.967V39H178.615ZM180.32 13.5455C179.666 13.5455 179.103 13.3229 178.629 12.8778C178.165 12.4328 177.933 11.8977 177.933 11.2727C177.933 10.6477 178.165 10.1127 178.629 9.66761C179.103 9.22254 179.666 9 180.32 9C180.973 9 181.532 9.22254 181.996 9.66761C182.469 10.1127 182.706 10.6477 182.706 11.2727C182.706 11.8977 182.469 12.4328 181.996 12.8778C181.532 13.3229 180.973 13.5455 180.32 13.5455Z" fill="white"/>
<line x1="194.153" y1="1.72937" x2="230.153" y2="62.7294" stroke="#0E23E1" stroke-width="5"/>
<line x1="226.407" y1="4.79103" x2="194.407" y2="47.791" stroke="#0F32EB" stroke-width="6"/>
</svg>
